PathFileType	4	(X/Y/Z)	./resultDataOpenSim/trcMotMarkerGrf/sub09/qtm-02-08.trc
DataRate	CameraRate	NumFrames	NumMarkers	Units	OrigDataRate	OrigDataStartFrame	OrigNumFrames
250.000000	250.000000	12	24	m	250.000000	245	489
Frame#	Time	L.Toe.Tip			R.Toe.Tip			L.Ankle.Lat			R.Ankle.Lat			L.Ankle.Med			R.Ankle.Med			L.Heel			R.Heel			L.Knee.Lat			R.Knee.Lat			L.Knee.Med			R.Knee.Med			L.Thigh.Upper			R.Thigh.Upper			L.ASIS			R.ASIS			V.Sacral			L.Acromium			R.Acromium			C7			L.Elbow			R.Elbow			L.Wrist.Lat			R.Wrist.Lat
		X1	Y1	Z1	X2	Y2	Z2	X3	Y3	Z3	X4	Y4	Z4	X5	Y5	Z5	X6	Y6	Z6	X7	Y7	Z7	X8	Y8	Z8	X9	Y9	Z9	X10	Y10	Z10	X11	Y11	Z11	X12	Y12	Z12	X13	Y13	Z13	X14	Y14	Z14	X15	Y15	Z15	X16	Y16	Z16	X17	Y17	Z17	X18	Y18	Z18	X19	Y19	Z19	X20	Y20	Z20	X21	Y21	Z21	X22	Y22	Z22	X23	Y23	Z23	X24	Y24	Z24

245	0.976	0.19843428	0.015100392	0.0097369406	0.45632042	0.098167214	0.12709853	0.051780026	0.051106365	-0.035547282	0.31117064	0.12033685	0.14943231	0.071508277	0.071980139	0.060288377	0.33132869	0.15146989	0.056094513	-0.022427997	0.021611739	0.0081713263	0.24546629	0.096721156	0.09653354	0.15635003	0.45316724	-0.094821272	0.43116321	0.55777617	0.17596919	0.15500933	0.45701152	0.030863959	0.4263326	0.53963324	0.051295072	0.18232755	0.87654349	-0.15569142	0.19677722	0.89065009	0.21521615	0.27259609	0.96057862	-0.098111944	0.27054607	0.9735261	0.14115872	0.10975387	1.024358	0.01998167	0.28657948	1.4217795	-0.12974881	0.24558031	1.4224852	0.19749638	0.19963127	1.4734009	0.026786534	0.16322236	1.06592	-0.20853458	0.073674221	1.1002549	0.25820429	0.40287614	0.93249596	-0.18865271	0.16835297	0.8508051	0.30753285
246	0.98	0.19842697	0.015090739	0.0097361467	0.47564082	0.098218296	0.12647115	0.051706821	0.051337918	-0.035100607	0.32973923	0.11704489	0.14889219	0.071828663	0.072229318	0.060624606	0.349298	0.14883817	0.055686247	-0.022392614	0.02196018	0.0089845495	0.26489837	0.092058861	0.095882021	0.15696516	0.45325831	-0.094822407	0.43772017	0.55780893	0.17552156	0.15612012	0.45711052	0.030830802	0.43366512	0.53970905	0.051484334	0.18714521	0.87617156	-0.15552112	0.20300511	0.8902048	0.21534738	0.27802296	0.95999089	-0.09840032	0.27662795	0.97307778	0.14098069	0.11538905	1.0238113	0.020026163	0.29242221	1.4213412	-0.12985428	0.25169244	1.4219727	0.19745084	0.20560131	1.4729407	0.026737521	0.16991058	1.0648848	-0.20853068	0.079623215	1.1001587	0.25812426	0.41163114	0.93487176	-0.18798333	0.17289689	0.85051097	0.30850521
247	0.984	0.19845704	0.015090975	0.0097087117	0.49492154	0.098405732	0.12595012	0.051514202	0.051580925	-0.034474376	0.34817157	0.11392963	0.14836992	0.072210615	0.07252006	0.061025186	0.36733172	0.14634281	0.055247938	-0.022350317	0.022337663	0.0099063971	0.28422201	0.08762392	0.095331125	0.15755668	0.45335553	-0.094844151	0.44401716	0.55763007	0.17501053	0.15720702	0.45721906	0.030801528	0.44081591	0.53960144	0.051700449	0.192004	0.87576211	-0.15538423	0.20922754	0.8896817	0.21548413	0.28349163	0.9593589	-0.0986681	0.28271433	0.97255503	0.14080877	0.12132665	1.0231712	0.02070705	0.29827673	1.4208493	-0.12994906	0.25781102	1.421408	0.19740892	0.21159373	1.4723982	0.026717586	0.1766337	1.063776	-0.20851299	0.085557527	1.0999946	0.25810767	0.42032749	0.93717809	-0.18730135	0.17750316	0.85015151	0.3094636
248	0.988	0.19854651	0.015106438	0.0096469083	0.51415913	0.098715851	0.12552888	0.051242997	0.051848308	-0.033713389	0.36663172	0.11098603	0.14782837	0.072663911	0.072845711	0.061499593	0.38542516	0.14399352	0.054760666	-0.022299629	0.022757071	0.010924205	0.30353049	0.083403592	0.094782929	0.15813721	0.45346496	-0.094889208	0.45064572	0.55754469	0.1747789	0.15829486	0.45734176	0.030755816	0.44778935	0.53935422	0.051976904	0.1969897	0.87533042	-0.15535993	0.21543832	0.88908306	0.2156262	0.28904965	0.95870026	-0.098898134	0.2888076	0.97195925	0.1406442	0.12752101	1.0224372	0.021917618	0.30414101	1.4203015	-0.13003512	0.26393099	1.4207978	0.19737537	0.21759745	1.4717905	0.026724301	0.18343722	1.0625996	-0.20853174	0.091350328	1.0997795	0.25820895	0.42895645	0.93941108	-0.18660884	0.1821774	0.84972839	0.31040148
249	0.992	0.19866234	0.015141097	0.0095757268	0.53330839	0.099156537	0.12521176	0.050964388	0.052156112	-0.032904003	0.38516884	0.10823505	0.14725844	0.073176898	0.073194407	0.062028358	0.40354669	0.14180627	0.054232094	-0.022239125	0.02322227	0.012017758	0.3229096	0.079385372	0.09412673	0.15873756	0.45358691	-0.094950755	0.45783151	0.55765994	0.17505027	0.15944827	0.45748421	0.030656248	0.45466644	0.5389941	0.05228234	0.20213266	0.87488439	-0.15546949	0.22163423	0.88841105	0.21577345	0.29473144	0.95803579	-0.099080572	0.29491147	0.97128999	0.14048822	0.13380787	1.021635	0.023269845	0.31001459	1.4196943	-0.13011484	0.27004998	1.4201442	0.19735109	0.22360733	1.4711301	0.026751168	0.19030207	1.0613695	-0.20858372	0.096938017	1.0995203	0.25834879	0.43751243	0.94156827	-0.1859076	0.1869192	0.84924513	0.31131556
250	0.996	0.19875636	0.01517523	0.0095410549	0.55230762	0.099754146	0.1250126	0.050722231	0.052508733	-0.032103534	0.40373561	0.10569755	0.14667238	0.073712505	0.073551433	0.062576005	0.42165262	0.13980535	0.053685637	-0.022173389	0.023726987	0.013147334	0.34235074	0.075580792	0.093338742	0.1593828	0.45371675	-0.095013405	0.4652228	0.55778208	0.17575546	0.16065299	0.45765443	0.03052477	0.46155552	0.53851704	0.052522597	0.20732246	0.87441523	-0.15560718	0.22781311	0.88766542	0.21592426	0.3005062	0.95736429	-0.09923052	0.30103004	0.97054978	0.14034516	0.139969	1.0208069	0.024243413	0.31590172	1.4190294	-0.13018687	0.2761736	1.4194438	0.19733488	0.22962788	1.4704202	0.026790878	0.197194	1.0601005	-0.2086462	0.10235099	1.0992172	0.25841684	0.44599777	0.9436472	-0.18519838	0.19172885	0.84870348	0.31220911
251	1	0.19880796	0.015178589	0.0095677517	0.57112712	0.10052266	0.12493013	0.050519084	0.052896931	-0.031334101	0.42225383	0.10337933	0.14607718	0.074230585	0.073906854	0.063113525	0.4397109	0.13800546	0.053139262	-0.022107225	0.02426396	0.01426765	0.36180954	0.072011181	0.092443176	0.16008559	0.45385279	-0.095066232	0.4723599	0.55766782	0.17660888	0.16178505	0.45784949	0.030452165	0.46846982	0.537905	0.052673607	0.21239763	0.87390772	-0.155618	0.23398274	0.88685009	0.21607995	0.30630183	0.95666552	-0.099375031	0.30717269	0.96974555	0.14022157	0.14592863	1.0199728	0.024650011	0.3218075	1.4183123	-0.13024756	0.28230906	1.4186909	0.19732639	0.23566827	1.4696639	0.026835892	0.20409705	1.0588002	-0.20870245	0.10775531	1.0988533	0.25841682	0.45441667	0.94564391	-0.18448513	0.19660789	0.84810427	0.31308752
252	1.004	0.19882717	0.015145367	0.0096293608	0.58977318	0.10146118	0.12494441	0.050345154	0.053305288	-0.030608365	0.44066151	0.10127307	0.14545766	0.074720229	0.074263144	0.063629167	0.45770221	0.13640411	0.052597374	-0.022038003	0.024830855	0.01535139	0.38124811	0.068692963	0.091469108	0.16084983	0.45399878	-0.095108702	0.47905897	0.55721919	0.17729952	0.16277017	0.45805153	0.030489106	0.47532701	0.53714468	0.052819463	0.21730125	0.87335282	-0.15544457	0.24015192	0.88597165	0.21624482	0.31206687	0.95592121	-0.099529475	0.31334927	0.96888221	0.14011977	0.15177883	1.0191178	0.024725866	0.32773272	1.4175447	-0.1302932	0.28845607	1.4178835	0.19732755	0.24173371	1.4688617	0.026881825	0.21100964	1.0574699	-0.20874628	0.11336874	1.0984015	0.25845185	0.46276965	0.94755465	-0.1837719	0.20155411	0.84745251	0.31395418
253	1.008	0.19883604	0.015094764	0.0096730887	0.60825751	0.1025635	0.12501763	0.050197299	0.053724395	-0.02992603	0.45892966	0.099365506	0.14478929	0.075192115	0.074629571	0.064116709	0.47560376	0.13499787	0.052055745	-0.021961182	0.025429572	0.016385709	0.40063831	0.065635725	0.090436871	0.16167755	0.45415836	-0.095144017	0.48540791	0.55648411	0.17769041	0.16378086	0.45825912	0.030533662	0.48206427	0.53624068	0.053057441	0.22208979	0.87274781	-0.15514268	0.2463099	0.88502756	0.21641942	0.31779174	0.95512412	-0.099694311	0.31955946	0.96795832	0.14003579	0.15763119	1.0182215	0.024786912	0.33367629	1.4167262	-0.13032193	0.29461092	1.4170279	0.19733919	0.24781971	1.4680116	0.026927646	0.21793333	1.0561065	-0.20877263	0.11926391	1.0978558	0.25858632	0.47105822	0.9493786	-0.18305699	0.2065618	0.8467532	0.31480761
254	1.012	0.19884798	0.015044273	0.0096713438	0.6265845	0.10380895	0.12507792	0.050074472	0.054160245	-0.029281342	0.47706761	0.097648258	0.14407299	0.07565249	0.075011788	0.064565857	0.49338132	0.13379627	0.051510432	-0.021878384	0.02606576	0.017356613	0.41995961	0.062849922	0.089359663	0.16257539	0.45432981	-0.095175235	0.4915624	0.55556185	0.17788363	0.16506846	0.45849307	0.030445786	0.48871075	0.53522157	0.053385132	0.22686132	0.87209669	-0.15480526	0.25243472	0.88401229	0.21659948	0.32348799	0.95427294	-0.099866992	0.32579454	0.96696954	0.13996287	0.16352354	1.0172688	0.024954444	0.33963804	1.4158602	-0.13033775	0.30077045	1.4161346	0.19735894	0.25391546	1.4671151	0.026974827	0.22487053	1.054702	-0.20877464	0.12534634	1.0972322	0.25879674	0.47928758	0.95111819	-0.18233482	0.21162626	0.8460037	0.3156419
255	1.016	0.19886352	0.014998054	0.0096314606	0.64475974	0.10516246	0.12503529	0.04997344	0.054628385	-0.028687861	0.49511913	0.096118519	0.14333636	0.076104509	0.07540914	0.064968076	0.51099621	0.13281382	0.050962615	-0.021793016	0.0267461	0.018249629	0.4391896	0.060355746	0.088259966	0.1635551	0.45450943	-0.095211036	0.49759496	0.55451036	0.17809545	0.16656691	0.45874452	0.030287687	0.49540897	0.53412606	0.053642407	0.23171852	0.87141586	-0.15452383	0.25849787	0.88292406	0.21676951	0.32916867	0.95336923	-0.10004696	0.3320495	0.96591663	0.13989447	0.16942708	1.0162432	0.025154094	0.3456164	1.4149535	-0.13034874	0.3069303	1.4152091	0.19738427	0.26001262	1.4661776	0.027027364	0.23182171	1.0532554	-0.20875408	0.13150094	1.0965452	0.25903075	0.487461	0.95277497	-0.18160227	0.2167468	0.84519791	0.31645219
256	1.02	0.19887834	0.014954634	0.0095708076	0.66279082	0.10659145	0.12482735	0.049892264	0.055138186	-0.028167811	0.51312457	0.094771378	0.14260052	0.076557822	0.075821358	0.065318239	0.5284209	0.13205164	0.050414608	-0.021702591	0.027475148	0.019060084	0.45829936	0.058175981	0.087181371	0.16463319	0.45469833	-0.095265359	0.50352632	0.55333871	0.17847802	0.16794045	0.45895932	0.03030233	0.50231923	0.53297069	0.053623024	0.23673966	0.87072848	-0.15437	0.26446806	0.88175657	0.2169028	0.33484567	0.95241856	-0.10022975	0.33832882	0.96481001	0.13982667	0.17528684	1.0151392	0.025252966	0.35160751	1.4140096	-0.13035969	0.31308729	1.4142492	0.19741336	0.26610932	1.4652035	0.027090288	0.23878539	1.0517755	-0.20872164	0.137674	1.0958009	0.25925302	0.49557648	0.95434559	-0.18086445	0.22192712	0.84433633	0.31723851
